Coordinates
version=1
nRows=54
nColumns=12
inDegrees=yes

Units are S.I. units (second, meters, Newtons, ...)
Angles are in degrees

endheader
time	SC_y	SC_z	SC_x	AC_y	AC_z	AC_x	GH_y	GH_z	GH_yy	EL_x	PS_y
       0.0              -53.73          13.76          25.48          57.96          1.559         -15.48          116.0           48.9           40.9          71.14          142.7
  0.003856              -53.73          13.76          25.49          57.95          1.557         -15.47          115.9           48.9          40.88          71.13          142.7
  0.007712              -53.73          13.76          25.49          57.95          1.555         -15.47          115.9          48.89          40.87          71.12          142.7
   0.01157              -53.73          13.76          25.49          57.95          1.553         -15.46          115.8          48.88          40.86          71.11          142.7
   0.01542              -53.73          13.77           25.5          57.94          1.551         -15.46          115.8          48.88          40.84           71.1          142.6
   0.01928              -53.73          13.77           25.5          57.94          1.549         -15.45          115.7          48.87          40.83          71.09          142.6
   0.02314              -53.72          13.77           25.5          57.94          1.546         -15.45          115.7          48.86          40.81          71.08          142.6
   0.02699              -53.72          13.77          25.51          57.93          1.543         -15.44          115.6          48.85          40.79          71.07          142.6
   0.03085              -53.72          13.78          25.51          57.93           1.54         -15.43          115.6          48.85          40.77          71.05          142.5
    0.0347              -53.72          13.78          25.52          57.92          1.537         -15.42          115.5          48.84          40.75          71.04          142.5
   0.03856              -53.72          13.78          25.52          57.92          1.534         -15.42          115.4          48.83          40.73          71.02          142.5
   0.04242              -53.71          13.79          25.53          57.91           1.53         -15.41          115.3          48.82          40.71          71.01          142.4
   0.04627              -53.71          13.79          25.53           57.9          1.526          -15.4          115.2           48.8          40.68          70.99          142.4
   0.05013              -53.71           13.8          25.54           57.9          1.522         -15.39          115.1          48.79          40.66          70.97          142.3
   0.05398               -53.7           13.8          25.55          57.89          1.518         -15.38          115.0          48.78          40.63          70.95          142.3
   0.05784               -53.7          13.81          25.56          57.88          1.513         -15.36          114.9          48.76           40.6          70.93          142.2
   0.06169               -53.7          13.81          25.56          57.87          1.507         -15.35          114.8          48.75          40.56           70.9          142.2
   0.06555              -53.69          13.82          25.57          57.86          1.501         -15.34          114.7          48.73          40.52          70.87          142.1
   0.06941              -53.69          13.83          25.58          57.85          1.495         -15.32          114.5          48.71          40.48          70.84          142.0
   0.07326              -53.68          13.83          25.59          57.84          1.488          -15.3          114.3          48.69          40.44          70.81          142.0
   0.07712              -53.68          13.84          25.61          57.83           1.48         -15.28          114.2          48.67          40.39          70.78          141.9
   0.08097              -53.67          13.85          25.62          57.82          1.472         -15.26          114.0          48.64          40.33          70.74          141.8
   0.08483              -53.67          13.86          25.64           57.8          1.463         -15.24          113.8          48.61          40.27          70.69          141.7
   0.08869              -53.66          13.87          25.65          57.78          1.452         -15.22          113.5          48.58          40.21          70.64          141.6
   0.09254              -53.65          13.89          25.67          57.77          1.441         -15.19          113.3          48.55          40.13          70.59          141.5
    0.0964              -53.64           13.9          25.69          57.75          1.428         -15.16          113.0          48.51          40.05          70.53          141.3
    0.1003              -53.63          13.92          25.71          57.72          1.413         -15.12          112.6          48.46          39.96          70.46          141.2
    0.1041              -53.62          13.93          25.74           57.7          1.397         -15.08          112.3          48.41          39.85          70.39          141.0
     0.108              -53.61          13.95          25.77          57.67          1.379         -15.04          111.8          48.36          39.73           70.3          140.8
    0.1118              -53.59          13.98           25.8          57.63          1.358         -14.99          111.4           48.3           39.6          70.21          140.6
    0.1157              -53.58           14.0          25.84           57.6          1.335         -14.93          110.8          48.23          39.45           70.1          140.4
    0.1195              -53.56          14.03          25.88          57.55          1.307         -14.86          110.2          48.14          39.27          69.97          140.1
    0.1234              -53.54          14.07          25.93           57.5          1.276         -14.78          109.5          48.05          39.07          69.83          139.8
    0.1272              -53.51          14.11          25.99          57.44           1.24         -14.69          108.6          47.94          38.84          69.66          139.4
    0.1311              -53.48          14.15          26.06          57.37          1.197         -14.59          107.6          47.81          38.56          69.46          138.9
     0.135              -53.45          14.21          26.14          57.29          1.147         -14.47          106.5          47.66          38.24          69.22          138.4
    0.1388              -53.41          14.27          26.23           57.2          1.087         -14.32          105.1          47.48          37.85          68.95          137.8
    0.1427              -53.36          14.35          26.34          57.08          1.015         -14.14          103.4          47.26          37.39          68.61          137.0
    0.1465               -53.3          14.45          26.48          56.94         0.9284         -13.93          101.4           47.0          36.83          68.21          136.1
    0.1504              -53.22          14.56          26.65          56.77         0.8226         -13.67           99.0          46.68          36.15          67.72          135.0
    0.1542              -53.13          14.71          26.86          56.56         0.6919         -13.35          95.99          46.29          35.31          67.11          133.6
    0.1581              -53.02          14.88          27.11           56.3         0.5289         -12.95          92.23           45.8          34.26          66.35          131.9
    0.1619              -52.88          15.11          27.44          55.97         0.3236         -12.45          87.49          45.18          32.93           65.4          129.8
    0.1658              -52.69          15.39          27.85          55.55         0.0626         -11.81          81.47          44.39          31.25          64.18          127.0
    0.1697              -52.46          15.76          28.38          55.02        -0.2715         -10.99          73.77          43.38           29.1          62.63          123.5
    0.1735              -52.17          16.23          29.06          54.33        -0.7001         -9.943          63.88          42.09          26.33          60.63          119.0
    0.1774              -51.79          16.83          29.93          53.45         -1.248         -8.602          51.25          40.44           22.8          58.09          113.3
    0.1812              -51.31          17.58          31.02          52.34         -1.936         -6.915          35.37          38.36          18.37          54.89          106.1
    0.1851              -50.73           18.5          32.35           51.0         -2.775          -4.86          16.02          35.83          12.96          50.98          97.26
    0.1889              -50.05          19.56          33.89          49.43         -3.748         -2.477         -6.407           32.9          6.688          46.46          87.06
    0.1928              -49.32          20.71          35.55          47.74         -4.801         0.1023         -30.69          29.73        -0.1001          41.56          76.02
    0.1967              -48.59          21.87          37.22          46.05         -5.854          2.682         -54.98          26.55         -6.888          36.66          64.98
    0.2005              -47.92          22.93          38.76          44.49         -6.827          5.064         -77.41          23.62         -13.16          32.14          54.78
    0.2044              -47.33          23.85          40.09          43.14         -7.666           7.12         -96.76          21.09         -18.57          28.24          45.98
